<?xml version="1.0" encoding="UTF-8"?> <svg xmlns="http://www.w3.org/2000/svg" width="1600" height="482" viewBox="0 0 1600 482" fill="none"><path d="M-1105 421.418C-1003.74 429.5 -863.368 446.818 -881.011 374.467C-898.654 302.117 -1006.63 201.221 -929.721 138.173C-874.153 92.622 -824.181 107.962 -778.871 160.912C-729.169 218.993 -684.519 318.164 -630.99 332.679C-539.349 357.528 -458.345 141.636 -360.925 225.917C-263.505 310.198 -302.243 411.413 -177.591 421.418C-52.9398 431.424 -37.6038 438.544 -61 300C-84.3962 161.456 -40.0694 66.2517 86.5 95.5C213.069 124.748 246 239.31 246 347.143C246 497.5 372.044 499.302 453.5 398.5C495 347.143 547.5 266.103 622.5 246C684 229.515 745 274.5 718 347.143C691 419.787 750.635 430.59 816.5 421.418C938 404.5 1017.46 345.675 974.5 246C931.543 146.325 880.905 31.5807 986.5 15.5001C1085 0.499957 1121.85 130.091 1139.11 196.669C1156.37 263.247 1195.92 379.123 1289.5 301C1383.08 222.877 1358.08 99.874 1453.5 119.5C1524 134 1457.5 223 1494.32 271.898C1535.84 327.036 1595.15 290.956 1635.8 208.599C1676.46 126.242 1766.21 106.615 1766.21 177.042C1766.21 247.469 1634.27 323.283 1655.36 378.316C1676.46 433.348 1773.88 433.348 1813 433.348" stroke="url(#paint0_linear_10_2839)" stroke-width="27"></path><defs><linearGradient id="paint0_linear_10_2839" x1="-1105" y1="238" x2="1846.35" y2="238" gradientUnits="userSpaceOnUse"><stop stop-color="white" stop-opacity="0.8"></stop><stop offset="1" stop-color="white" stop-opacity="0.2"></stop></linearGradient></defs></svg> 